<svg xmlns="http://www.w3.org/2000/svg" viewBox="0 0 2732 2732">
  <rect width="2732" height="2732" fill="#0a0a0f"/>
  <defs>
    <linearGradient id="flame" x1="0%" y1="100%" x2="100%" y2="0%">
      <stop offset="0%" stop-color="#F97316"/>
      <stop offset="100%" stop-color="#FB923C"/>
    </linearGradient>
  </defs>
  <path transform="translate(1016, 800)" d="M350 0 C350 0 100 300 100 475 C100 625 210 775 350 775 C490 775 600 625 600 475 C600 300 350 0 350 0 Z M350 625 C290 625 250 580 250 525 C250 440 350 340 350 340 C350 340 450 440 450 525 C450 580 410 625 350 625 Z" fill="url(#flame)"/>
  <text x="1366" y="1750" font-family="Arial, sans-serif" font-size="200" font-weight="bold" fill="white" text-anchor="middle">STATFYR</text>
  <text x="1366" y="1900" font-family="Arial, sans-serif" font-size="60" fill="#888888" text-anchor="middle">Sports Stats &amp; Team Management</text>
</svg>
